<svg id="Buscanna_Recursos_Marca" xmlns="http://www.w3.org/2000/svg" viewBox="0 0 1700.79 992.13"><defs><style>.cls-1{fill:#fff;}</style></defs><g id="buscanna_logo_hrz_2c_pms"><g id="símbolo"><path class="cls-1" d="M724.41,515.3q-3.66,5.31-7.72,10.3c-10.33,12.72-25.61,19.87-41.58,21.43-19.05,1.88-38.09,2.94-57.23,3.21a1.33,1.33,0,0,1-1.19-2,184.52,184.52,0,0,1,65.66-68.33A17,17,0,0,1,694.74,478a19,19,0,0,1,10.76,6.54,163.65,163.65,0,0,1,19,29.39A1.33,1.33,0,0,1,724.41,515.3Z"/><path class="cls-1" d="M735,541.1a143.11,143.11,0,0,1,3.7,17.25,27,27,0,0,1-7,22.75,31.13,31.13,0,0,1-22.06,9.41A199.43,199.43,0,0,1,623,572.73a1.32,1.32,0,0,1-.75-1.47,1.33,1.33,0,0,1,1.27-1.07q28-.53,55.86-3.25c20.26-2,39.69-10.75,53.37-26.36A1.32,1.32,0,0,1,735,541.1Z"/><path class="cls-1" d="M737.87,491.76a162,162,0,0,0,14-49.81c1.08-9.37-2.68-18.44-9-25.08a38.16,38.16,0,0,0-24.28-11.64c-30.93-2.58-62.38,2.11-90.83,15a160.86,160.86,0,0,0-39.09,25,152.06,152.06,0,0,0-30,35.3,41.05,41.05,0,0,0-5,30,50.44,50.44,0,0,0,15.42,26.57,201.2,201.2,0,0,0,19,15.52,1.33,1.33,0,0,0,2-.54c16.69-37.34,44.43-67.86,79.09-89.14,8.52-5.24,18.88-6.48,28.48-4.44a43.73,43.73,0,0,1,24.75,15.05,187.73,187.73,0,0,1,13.1,18.33A1.33,1.33,0,0,0,737.87,491.76Z"/></g></g><path class="cls-1" d="M823.42,486.45h4.45q6.17,0,8.89-3.28l27-33.19a11.39,11.39,0,0,1,5.06-3.7,21.59,21.59,0,0,1,7-1H900l-35.56,41.07a22.21,22.21,0,0,1-3.95,3.7,26.54,26.54,0,0,1-4.2,2.44A22.57,22.57,0,0,1,862,495.2a19,19,0,0,1,4.73,4.57l36.22,47.14H878.08a26,26,0,0,1-4.07-.28,12.12,12.12,0,0,1-2.93-.84,8.18,8.18,0,0,1-2.13-1.36,12.81,12.81,0,0,1-1.73-1.85l-27.17-35.35a7.94,7.94,0,0,0-3.75-2.75,18.72,18.72,0,0,0-6.13-.81h-6.75v43.24H795.6V445.31h27.82Z"/><path class="cls-1" d="M913.15,546.91V474.6H928.3a15.66,15.66,0,0,1,3.17.27,6,6,0,0,1,2.14.88,3.77,3.77,0,0,1,1.31,1.56,12.27,12.27,0,0,1,.79,2.38l1.4,6.76a38.35,38.35,0,0,1,10.53-9.69,24.11,24.11,0,0,1,12.76-3.56q5.85,0,9.39,2.37l-3.3,15.9a3,3,0,0,1-1.31,2.06,5.16,5.16,0,0,1-2.64.59,20.34,20.34,0,0,1-3.29-.31,29.77,29.77,0,0,0-4.77-.32q-10.05,0-15.81,9.07v44.35Z"/><path class="cls-1" d="M1017.7,473.48a51.14,51.14,0,0,1,15.52,2.23,35.05,35.05,0,0,1,12.1,6.49,29.55,29.55,0,0,1,7.9,10.42,33.16,33.16,0,0,1,2.84,14,25.3,25.3,0,0,1-.25,4,5.61,5.61,0,0,1-.9,2.44,3.38,3.38,0,0,1-1.77,1.25,9.43,9.43,0,0,1-2.84.35h-49.23q1.23,9.06,6.5,13.15t13.59,4.07a28.57,28.57,0,0,0,7.65-.9,43.9,43.9,0,0,0,5.72-2c1.68-.75,3.21-1.42,4.61-2a11.08,11.08,0,0,1,4.41-.9,5.64,5.64,0,0,1,4.61,1.88l7.41,7.74a37,37,0,0,1-8.52,6.24,48.25,48.25,0,0,1-9.39,3.77,59.55,59.55,0,0,1-9.63,1.88,84.77,84.77,0,0,1-9.18.52,55.73,55.73,0,0,1-16.83-2.47,40.14,40.14,0,0,1-13.75-7.36,34.6,34.6,0,0,1-9.3-12.13,39.19,39.19,0,0,1-3.42-16.88,33,33,0,0,1,2.92-13.73,33.53,33.53,0,0,1,8.4-11.37,41,41,0,0,1,13.25-7.74A50.65,50.65,0,0,1,1017.7,473.48Zm.49,14.92q-7.32,0-11.44,3.52t-5.43,10.15h31.85a16.4,16.4,0,0,0-.78-5,11.53,11.53,0,0,0-2.55-4.36,12.85,12.85,0,0,0-4.65-3.1A18.39,18.39,0,0,0,1018.19,488.4Z"/><path class="cls-1" d="M1129.65,546.91a13.78,13.78,0,0,1-5.47-.84,6.67,6.67,0,0,1-3.09-3.49l-1.81-4q-3.21,2.29-6.17,4a41.31,41.31,0,0,1-6.14,3,34.82,34.82,0,0,1-6.75,1.81,49.32,49.32,0,0,1-7.94.59,40.66,40.66,0,0,1-10.62-1.29,23.62,23.62,0,0,1-8.11-3.81,17,17,0,0,1-5.14-6.27,19.53,19.53,0,0,1-1.81-8.63,15.91,15.91,0,0,1,2.3-7.91q2.31-4.07,8-7.38t15.31-5.56q9.63-2.25,24.28-2.24v-3.1q0-6.4-3.08-9.25c-2.06-1.9-5-2.85-8.77-2.85a27.53,27.53,0,0,0-7.41.83,36.76,36.76,0,0,0-5.15,1.89c-1.51.69-3,1.32-4.4,1.88a14,14,0,0,1-5.1.84,8.76,8.76,0,0,1-4.49-1.08,8.63,8.63,0,0,1-2.92-2.69l-4.61-6.76a54.63,54.63,0,0,1,17.16-8.62,70.16,70.16,0,0,1,20.21-2.82,42.83,42.83,0,0,1,13.95,2.13,30.9,30.9,0,0,1,10.54,5.92,25.82,25.82,0,0,1,6.63,9,28.09,28.09,0,0,1,2.3,11.43v45.19Zm-29.3-13.18a23.34,23.34,0,0,0,8.64-1.47,26.18,26.18,0,0,0,7.49-4.74v-9.9a77.4,77.4,0,0,0-12.59.84,34.9,34.9,0,0,0-7.82,2.11,9.34,9.34,0,0,0-4,2.89A6.09,6.09,0,0,0,1091,527q0,3.74,2.39,5.25C1094.94,533.22,1097.27,533.73,1100.35,533.73Z"/></svg>